# xmcd
#
# Track frame offsets: 
#        150
#        22207
#        48990
#        65413
#        88597
#        109764
#        127239
#        138172
#        159045
#        176568
#
# Disc length: 2563 seconds
#
# Revision: 0
# Processed by: cddbd v1.5.2PL0 Copyright (c) Steve Scherf et al.
# Submitted via: ExactAudioCopy v0.99pb1
#
DISCID=830a010a
DTITLE=Bluehorses - Thirteen Fires
DYEAR=2007
DGENRE=Folk/Rock
TTITLE0=Dance With Me
TTITLE1=Ray Of Light
TTITLE2=Calling My Loves
TTITLE3=The Ride
TTITLE4=Chant
TTITLE5=The Raggle Taggle Gypsio
TTITLE6=The Unknown
TTITLE7=The Fool
TTITLE8=Aberdulais
TTITLE9=Waes Hael
EXTD=
EXTT0=
EXTT1=
EXTT2=
EXTT3=
EXTT4=
EXTT5=
EXTT6=
EXTT7=
EXTT8=
EXTT9=
PLAYORDER=
